# xmcd
#
# Track frame offsets:
#	150
#	12377
#	24610
#	36365
#	50202
#	64662
#	76772
#	90030
#	103104
#	116022
#	129195
#	139162
#
# Disc length: 2119 seconds
#
# Revision: 1
# Processed by: cddbd v1.4PL0 Copyright (c) Steve Scherf et al.
# Submitted via: CDmax 1.8
#
DISCID=9708450c
DTITLE=Wandering Eyes - Songs of Forbidden Love
DYEAR=1998
DGENRE=Country
TTITLE0=It's A Cheatin' Situation
TTITLE1=Lovin' on Backstreets
TTITLE2=Cheatin' Traces
TTITLE3=In Some Room Above the Street
TTITLE4=Forbidden Angel
TTITLE5=Devil In Mrs. Jones
TTITLE6=Unspoken Kind
TTITLE7=Even If I Have to Steal
TTITLE8=When She Does Me Right She Does You Wrong
TTITLE9=The Game of Triangles
TTITLE10=Hell Yes, I Cheated
TTITLE11=Me and Mrs. Jones
EXTD=
EXTT0=
EXTT1=
EXTT2=
EXTT3=
EXTT4=
EXTT5=
EXTT6=
EXTT7=
EXTT8=
EXTT9=
EXTT10=
EXTT11=
PLAYORDER=
